# xmcd
#
# Track frame offsets:
#	187
#	41500
#	57400
#	91422
#	101900
#	127637
#	150172
#	182685
#	204837
#	231377
#
# Disc length: 3413 seconds
#
# Revision: 1
# Processed by: cddbd v1.4b42PL1 Copyright (c) Steve Scherf et al.
# Submitted via: audiograbber 1.80
#
DISCID=760d530a
DTITLE=Sunrise Sunset - Christian Riese Lassen Selection
DYEAR=1900
DGENRE=
TTITLE0=Song of the Big Fish - Zeus Faber
TTITLE1=Leapi - Bill Douglas
TTITLE2=The Innocent Land - Gary Remal Malkin
TTITLE3=Moonwater - Zeus Faber
TTITLE4=Recuerdos De La Alhamnra - Gino D'Auri
TTITLE5=Mica - Rob Whitesides Woo
TTITLE6=Foothills - Karl Schaffner
TTITLE7=Deirdre of The Sorrows - Mychael Danna
TTITLE8=Breathing Out - Shamans Dream
TTITLE9=Everything You Do - Chris Reise Lassen
EXTD=
EXTT0=
EXTT1=
EXTT2=
EXTT3=
EXTT4=
EXTT5=
EXTT6=
EXTT7=
EXTT8=
EXTT9=
PLAYORDER=
